<?xml version="1.0" encoding="UTF-8"?><!DOCTYPE svg PUBLIC "-//W3C//DTD SVG 1.1//EN" "http://www.w3.org/Graphics/SVG/1.1/DTD/svg11.dtd"><svg width="111pt" height="63pt" viewBox="0 0 111 63" version="1.1" xmlns="http://www.w3.org/2000/svg"><g id="#120d0bff"></g><g id="#fdfbfbff"><path fill="#fdfbfb" opacity="1.00" d=" M 19.50 2.68 C 23.76 0.85 28.50 1.52 33.00 1.38 C 48.80 0.29 61.94 15.85 61.68 30.99 C 61.98 47.48 46.25 61.65 30.00 60.79 C 21.70 60.72 13.95 56.64 8.41 50.59 C 0.93 43.42 -0.74 31.80 1.99 22.13 C 4.31 13.32 11.24 6.23 19.50 2.68 M 29.55 6.44 C 27.40 10.18 26.17 14.32 25.27 18.51 C 29.09 18.74 32.91 18.73 36.73 18.48 C 36.15 14.21 35.12 9.91 32.47 6.42 C 31.50 6.43 30.52 6.44 29.55 6.44 M 8.90 18.52 C 12.60 18.79 16.33 18.85 20.00 18.29 C 20.93 14.53 22.08 10.81 22.84 7.01 C 16.95 8.97 11.86 13.03 8.90 18.52 M 39.26 7.08 C 39.96 10.99 41.15 14.79 42.53 18.51 C 46.05 18.72 49.58 18.73 53.10 18.46 C 50.14 13.09 45.22 8.76 39.26 7.08 M 6.49 24.51 C 6.14 28.61 6.16 32.74 6.43 36.84 C 10.58 37.52 14.80 37.50 18.97 36.99 C 19.51 32.82 19.52 28.60 18.95 24.44 C 14.80 24.28 10.64 24.24 6.49 24.51 M 24.53 24.50 C 24.32 28.79 24.35 33.09 24.62 37.38 C 28.85 37.40 33.09 37.40 37.33 37.28 C 37.64 33.02 37.63 28.75 37.47 24.49 C 33.16 24.26 28.84 24.28 24.53 24.50 M 43.53 24.55 C 43.24 28.76 43.23 32.99 43.59 37.20 C 47.64 37.43 51.72 37.48 55.76 36.96 C 56.46 32.82 56.90 28.47 55.23 24.49 C 51.33 24.30 47.43 24.28 43.53 24.55 M 25.19 42.47 C 26.14 47.27 27.21 52.47 31.01 55.90 C 35.11 52.71 35.89 47.29 36.76 42.51 C 32.91 42.33 29.05 42.31 25.19 42.47 M 42.53 42.57 C 41.12 46.55 39.97 50.63 39.13 54.77 C 44.65 51.88 50.42 48.39 53.19 42.54 C 49.64 42.32 46.08 42.34 42.53 42.57 M 9.58 42.62 C 11.42 48.28 16.63 51.59 21.94 53.56 C 21.53 50.04 20.96 46.50 19.67 43.19 C 16.60 41.66 12.90 42.60 9.58 42.62 Z"/><path fill="#fdfbfb" opacity="1.00" d=" M 58.87 7.92 C 63.36 4.17 68.98 1.24 74.98 1.41 C 80.79 1.53 87.08 0.51 92.38 3.53 C 101.00 7.63 106.92 16.03 109.27 25.13 C 110.68 33.28 108.53 41.96 103.51 48.52 C 100.28 52.24 96.66 55.83 92.22 58.08 C 85.71 60.74 78.29 61.77 71.44 59.79 C 66.10 58.28 60.62 55.82 57.37 51.10 C 57.65 50.35 58.19 48.87 58.47 48.12 C 63.02 48.98 66.16 52.86 70.56 54.21 C 69.87 50.47 68.90 46.79 67.92 43.12 C 66.34 42.52 64.76 41.91 63.19 41.31 C 62.77 38.59 65.26 37.33 66.87 35.65 C 67.70 32.62 67.38 29.33 67.01 26.25 C 65.56 24.12 63.31 22.60 62.27 20.17 C 64.14 19.36 66.05 18.63 67.97 17.93 C 68.99 14.31 69.97 10.68 70.70 6.99 C 66.81 8.66 63.30 11.05 59.87 13.50 C 58.98 12.85 58.08 12.20 57.19 11.56 C 57.41 10.21 57.67 8.76 58.87 7.92 M 77.49 6.48 C 75.18 10.14 73.94 14.31 73.19 18.54 C 77.07 18.74 80.95 18.74 84.83 18.52 C 83.99 14.13 82.59 9.77 79.72 6.26 C 79.16 6.31 78.05 6.43 77.49 6.48 M 87.26 7.05 C 88.03 10.95 89.00 14.81 90.30 18.57 C 93.89 18.75 97.49 18.76 101.08 18.49 C 98.18 13.01 93.05 9.09 87.26 7.05 M 72.91 24.38 C 72.25 28.63 72.34 32.94 72.81 37.20 C 76.93 37.45 81.07 37.44 85.19 37.17 C 85.61 32.92 85.71 28.63 85.09 24.39 C 81.03 24.27 76.97 24.26 72.91 24.38 M 90.66 24.50 C 90.65 28.58 90.64 32.66 90.64 36.74 C 95.09 37.53 99.82 37.97 104.14 36.31 C 104.27 32.73 104.66 29.12 104.17 25.56 C 103.56 24.84 102.77 24.47 101.81 24.47 C 98.10 24.10 94.37 24.33 90.66 24.50 M 73.20 42.47 C 74.01 47.26 75.12 52.45 78.99 55.77 C 82.71 52.35 84.12 47.35 84.84 42.50 C 80.96 42.37 77.08 42.35 73.20 42.47 M 89.99 42.66 C 89.12 46.83 88.10 50.97 86.48 54.92 C 92.32 52.15 98.28 48.56 101.20 42.53 C 97.46 42.31 93.72 42.32 89.99 42.66 Z"/></g></svg>