<?xml version="1.0" encoding="UTF-8"?><!DOCTYPE svg PUBLIC "-//W3C//DTD SVG 1.1//EN" "http://www.w3.org/Graphics/SVG/1.1/DTD/svg11.dtd"><svg width="514pt" height="326pt" viewBox="0 0 514 326" version="1.1" xmlns="http://www.w3.org/2000/svg"><g id="#484848ff"><path fill="#484848" opacity="1.00" d=" M 0.00 0.00 L 514.00 0.00 L 514.00 67.96 C 511.26 65.35 508.24 63.05 505.28 60.69 C 491.29 49.04 474.58 40.80 457.07 35.96 C 427.04 26.52 394.73 27.31 364.01 32.72 C 350.31 34.85 336.93 38.61 323.70 42.70 C 319.29 44.14 314.60 44.57 309.99 44.13 C 294.50 42.91 278.90 41.32 263.87 37.18 C 250.57 32.96 236.51 27.78 227.59 16.44 C 225.25 13.85 223.06 9.90 219.02 10.21 C 215.96 10.09 212.97 11.95 211.90 14.85 C 209.38 20.88 209.79 27.59 209.64 33.99 C 209.42 50.89 213.93 68.68 225.51 81.44 C 229.87 86.42 235.21 90.38 240.29 94.58 C 231.02 106.80 224.82 121.01 220.02 135.50 C 213.23 154.92 211.20 175.59 210.49 196.03 C 210.37 201.08 211.24 206.10 210.99 211.15 C 210.75 214.77 207.83 217.33 205.81 220.08 C 191.98 207.60 178.21 195.06 164.16 182.83 C 161.21 180.25 157.79 178.14 155.25 175.11 C 158.38 168.51 161.88 160.85 169.22 158.12 C 183.52 151.69 197.70 144.99 212.08 138.75 C 199.94 132.57 187.48 127.06 175.12 121.34 C 174.03 111.17 175.66 100.79 173.19 90.77 C 170.97 82.28 168.23 73.79 163.88 66.12 C 158.16 57.39 150.81 49.44 141.65 44.27 C 122.99 33.27 99.46 30.91 78.95 37.85 C 58.32 45.00 41.08 60.29 29.75 78.78 C 25.21 86.89 20.35 95.00 18.03 104.08 C 14.79 115.08 12.99 126.50 13.24 137.99 C 12.58 154.94 16.37 172.57 26.54 186.42 C 37.60 202.51 56.78 211.90 76.05 212.94 C 87.64 214.11 99.25 211.99 110.22 208.31 C 113.57 224.72 122.08 239.57 132.89 252.20 C 119.11 259.92 104.93 269.81 99.10 285.17 C 93.58 298.21 95.17 313.01 99.99 326.00 L 0.00 326.00 L 0.00 0.00 M 47.20 223.09 C 42.27 224.81 41.15 230.47 40.68 235.03 C 40.06 243.35 40.15 251.99 43.17 259.88 C 45.73 266.85 49.77 273.14 53.99 279.20 C 56.13 282.21 58.70 285.24 62.31 286.44 C 67.06 287.30 72.75 283.16 71.50 277.96 C 70.19 273.34 66.56 269.96 63.91 266.10 C 59.72 260.54 57.17 253.85 56.12 247.00 C 55.28 241.39 57.05 235.88 57.52 230.33 C 58.35 225.13 51.79 220.83 47.20 223.09 M 73.78 232.79 C 70.14 235.99 69.42 241.35 69.89 245.93 C 70.49 250.72 71.70 256.13 75.95 259.04 C 79.05 261.47 83.78 259.97 85.96 257.01 C 87.67 254.53 86.81 251.40 86.47 248.65 C 85.61 244.20 85.38 239.66 85.47 235.14 C 82.06 232.93 77.81 231.03 73.78 232.79 Z"/><path fill="#484848" opacity="1.00" d=" M 263.58 147.81 C 270.44 149.80 276.48 153.96 283.62 155.13 C 281.47 162.55 279.23 170.12 279.50 177.93 C 279.73 181.74 279.36 185.52 278.88 189.30 C 273.84 184.25 267.92 179.47 265.60 172.45 C 262.35 164.64 263.21 156.03 263.58 147.81 Z"/><path fill="#484848" opacity="1.00" d=" M 384.39 171.72 C 381.99 165.47 381.49 158.72 382.23 152.11 C 387.69 154.97 393.90 155.90 399.37 158.68 C 399.75 162.82 398.27 166.84 398.06 170.95 C 397.42 177.54 399.61 183.90 401.05 190.23 C 392.74 187.47 386.76 179.96 384.39 171.72 Z"/><path fill="#484848" opacity="1.00" d=" M 352.80 220.80 C 361.30 219.57 370.96 218.31 378.42 223.60 C 381.60 225.90 385.64 228.74 385.66 233.10 C 386.00 236.20 382.73 238.01 380.08 238.33 C 374.14 238.97 368.23 236.83 363.26 233.72 C 358.62 230.57 354.16 226.44 352.80 220.80 Z"/><path fill="#484848" opacity="1.00" d=" M 466.61 300.63 C 480.72 288.20 497.02 278.52 514.00 270.57 L 514.00 326.00 L 442.91 326.00 C 449.99 316.82 458.06 308.45 466.61 300.63 Z"/><path fill="#484848" opacity="1.00" d=" M 256.79 326.00 C 260.88 321.85 264.36 317.16 268.08 312.70 C 272.06 316.83 275.39 321.51 278.95 326.00 L 256.79 326.00 Z"/></g><g id="#222222ff"><path fill="#222222" opacity="1.00" d=" M 211.90 14.85 C 212.97 11.95 215.96 10.09 219.02 10.21 C 223.06 9.90 225.25 13.85 227.59 16.44 C 236.51 27.78 250.57 32.96 263.87 37.18 C 278.90 41.32 294.50 42.91 309.99 44.13 C 314.60 44.57 319.29 44.14 323.70 42.70 C 336.93 38.61 350.31 34.85 364.01 32.72 C 394.73 27.31 427.04 26.52 457.07 35.96 C 474.58 40.80 491.29 49.04 505.28 60.69 C 508.24 63.05 511.26 65.35 514.00 67.96 L 514.00 92.10 C 497.16 70.05 472.13 55.18 445.36 48.62 C 409.53 40.19 371.99 44.76 336.95 54.64 C 329.76 56.72 322.65 59.84 315.01 59.53 C 299.16 59.22 283.32 57.43 267.85 53.96 C 252.63 50.58 237.83 44.81 225.03 35.80 C 225.12 49.58 229.35 63.74 239.16 73.76 C 244.05 79.38 251.15 82.05 257.21 86.08 C 260.08 87.81 261.19 91.72 259.72 94.72 C 257.96 98.12 255.09 100.74 252.80 103.76 C 244.70 114.17 239.32 126.37 234.96 138.73 C 228.24 159.00 225.63 180.47 226.05 201.78 C 232.00 199.77 238.38 197.48 244.71 199.09 C 253.82 201.42 260.89 208.81 264.80 217.14 C 268.92 225.79 268.33 235.91 265.68 244.91 C 263.10 254.49 257.74 262.97 252.67 271.39 C 257.73 273.14 263.02 275.18 266.53 279.44 C 271.62 285.06 271.00 293.44 275.50 299.43 C 282.15 309.04 289.90 317.90 298.33 326.00 L 278.95 326.00 C 275.39 321.51 272.06 316.83 268.08 312.70 C 264.36 317.16 260.88 321.85 256.79 326.00 L 229.78 326.00 C 237.29 322.19 244.01 316.88 249.81 310.80 C 253.43 306.69 257.17 301.78 256.81 296.01 C 256.85 292.76 255.52 289.06 252.32 287.72 C 247.74 285.64 242.72 287.63 237.95 287.34 C 232.81 287.20 228.97 280.96 231.28 276.35 C 233.71 271.02 237.52 266.50 240.57 261.54 C 245.91 253.09 250.92 244.05 252.32 234.01 C 253.32 226.59 249.76 218.53 243.07 214.93 C 239.03 213.35 234.45 214.61 231.00 217.01 C 224.32 221.52 218.87 227.60 214.03 233.99 C 212.17 236.12 210.19 238.90 207.06 238.93 C 203.89 239.12 201.43 236.76 199.17 234.87 C 187.85 224.17 176.11 213.90 164.50 203.50 C 158.21 198.43 152.81 192.16 145.80 188.04 C 144.22 186.85 142.77 188.77 141.55 189.56 C 136.53 194.05 131.16 198.13 125.45 201.69 C 126.56 218.83 136.63 233.74 147.98 245.97 C 150.71 249.08 154.64 252.38 153.88 257.01 C 153.45 261.08 149.18 262.90 145.82 264.09 C 132.38 268.89 118.81 277.36 113.20 291.08 C 108.60 302.48 111.86 315.04 116.74 325.76 C 126.00 325.85 135.28 325.70 144.54 326.00 L 99.99 326.00 C 95.17 313.01 93.58 298.21 99.10 285.17 C 104.93 269.81 119.11 259.92 132.89 252.20 C 122.08 239.57 113.57 224.72 110.22 208.31 C 99.25 211.99 87.64 214.11 76.05 212.94 C 56.78 211.90 37.60 202.51 26.54 186.42 C 16.37 172.57 12.58 154.94 13.24 137.99 C 12.99 126.50 14.79 115.08 18.03 104.08 C 20.35 95.00 25.21 86.89 29.75 78.78 C 41.08 60.29 58.32 45.00 78.95 37.85 C 99.46 30.91 122.99 33.27 141.65 44.27 C 150.81 49.44 158.16 57.39 163.88 66.12 C 168.23 73.79 170.97 82.28 173.19 90.77 C 175.66 100.79 174.03 111.17 175.12 121.34 C 187.48 127.06 199.94 132.57 212.08 138.75 C 197.70 144.99 183.52 151.69 169.22 158.12 C 161.88 160.85 158.38 168.51 155.25 175.11 C 157.79 178.14 161.21 180.25 164.16 182.83 C 178.21 195.06 191.98 207.60 205.81 220.08 C 207.83 217.33 210.75 214.77 210.99 211.15 C 211.24 206.10 210.37 201.08 210.49 196.03 C 211.20 175.59 213.23 154.92 220.02 135.50 C 224.82 121.01 231.02 106.80 240.29 94.58 C 235.21 90.38 229.87 86.42 225.51 81.44 C 213.93 68.68 209.42 50.89 209.64 33.99 C 209.79 27.59 209.38 20.88 211.90 14.85 M 61.88 62.68 C 45.56 75.73 34.31 94.65 29.56 114.91 C 26.81 125.06 27.06 135.65 27.21 146.06 C 27.38 156.15 30.45 166.06 35.36 174.83 C 41.65 186.04 52.87 194.06 65.16 197.45 C 91.52 204.89 120.99 193.91 138.54 173.48 C 144.02 167.65 148.17 160.73 151.69 153.58 C 152.95 150.48 156.28 149.32 159.08 148.02 C 165.69 145.22 172.13 142.00 178.75 139.22 C 178.73 138.76 178.69 137.84 178.66 137.39 C 172.25 134.95 166.17 131.76 159.94 128.91 C 163.06 110.63 162.29 90.71 153.02 74.22 C 146.41 62.07 134.36 53.51 121.11 50.00 C 100.85 43.35 78.05 49.33 61.88 62.68 Z"/><path fill="#222222" opacity="1.00" d=" M 95.06 76.21 C 100.39 74.94 105.84 77.00 110.36 79.74 C 115.91 83.11 118.65 89.76 118.56 96.08 C 119.02 107.16 114.37 117.63 108.77 126.92 C 105.24 132.13 101.68 137.94 96.00 141.01 C 89.16 141.21 82.41 139.41 75.66 138.48 C 73.59 129.15 70.86 119.68 71.91 110.02 C 72.52 102.58 75.70 95.67 79.25 89.21 C 82.67 83.21 88.00 77.53 95.06 76.21 Z"/><path fill="#222222" opacity="1.00" d=" M 299.97 88.07 C 310.16 85.19 321.23 85.73 331.01 89.85 C 346.16 95.64 356.73 110.37 359.57 126.06 C 362.51 141.62 359.33 157.95 351.80 171.78 C 345.37 183.18 336.30 193.10 325.28 200.21 C 326.05 203.51 326.57 207.55 330.06 209.14 C 336.98 213.04 344.94 209.05 352.11 208.01 C 366.14 204.72 382.55 207.37 392.55 218.44 C 397.81 223.69 400.20 231.73 397.79 238.88 C 396.22 243.67 392.07 246.83 388.29 249.86 C 398.54 247.26 409.79 245.63 419.78 250.09 C 431.14 254.51 438.33 266.14 439.62 277.95 C 440.56 287.12 438.75 296.44 434.99 304.82 C 430.43 314.56 421.95 322.45 411.76 326.00 L 390.63 326.00 C 384.65 324.18 378.89 321.61 373.67 318.18 C 371.51 316.93 369.24 315.16 366.58 315.74 C 361.73 316.42 356.84 317.68 351.92 316.76 C 347.16 316.23 342.90 313.58 338.11 313.30 C 333.26 313.99 328.86 316.39 324.08 317.38 C 314.12 319.76 302.81 320.73 293.62 315.36 C 286.12 311.22 281.29 303.30 279.79 295.01 C 278.00 282.20 281.04 268.45 289.41 258.40 C 295.14 250.78 304.46 246.21 313.93 245.83 C 321.17 245.50 328.14 248.21 334.55 251.32 C 338.98 253.43 342.42 257.08 346.76 259.31 C 350.70 260.61 354.94 260.26 359.03 260.33 C 367.74 260.60 374.61 254.42 382.44 251.59 C 373.81 251.67 364.96 250.25 357.64 245.39 C 348.87 240.71 343.37 232.21 337.77 224.35 C 333.36 223.77 328.78 223.36 324.79 221.21 C 318.67 218.22 314.85 212.30 312.48 206.13 C 299.53 209.82 284.91 209.99 272.93 203.17 C 257.67 195.48 248.94 178.64 247.77 162.03 C 246.49 145.47 252.09 128.98 261.44 115.45 C 270.83 102.47 284.18 91.85 299.97 88.07 M 298.65 104.64 C 285.74 109.64 274.79 119.97 269.43 132.75 C 273.88 134.99 278.23 137.49 282.98 139.06 C 295.31 142.64 308.41 143.71 321.11 141.72 C 329.44 140.44 338.04 139.72 345.72 135.98 C 344.38 130.22 343.90 124.12 341.06 118.82 C 337.17 110.80 329.54 104.75 320.90 102.62 C 313.52 101.13 305.58 101.54 298.65 104.64 M 263.58 147.81 C 263.21 156.03 262.35 164.64 265.60 172.45 C 267.92 179.47 273.84 184.25 278.88 189.30 C 279.36 185.52 279.73 181.74 279.50 177.93 C 279.23 170.12 281.47 162.55 283.62 155.13 C 276.48 153.96 270.44 149.80 263.58 147.81 M 324.01 157.03 C 315.66 158.23 307.19 157.20 298.85 158.31 C 296.61 165.67 294.19 173.21 294.51 181.01 C 294.55 185.03 295.98 188.84 296.96 192.70 C 300.67 192.69 304.49 192.65 307.99 191.24 C 324.58 185.15 337.38 170.70 342.82 154.05 C 336.48 154.57 330.34 156.44 324.01 157.03 M 352.80 220.80 C 354.16 226.44 358.62 230.57 363.26 233.72 C 368.23 236.83 374.14 238.97 380.08 238.33 C 382.73 238.01 386.00 236.20 385.66 233.10 C 385.64 228.74 381.60 225.90 378.42 223.60 C 370.96 218.31 361.30 219.57 352.80 220.80 M 297.88 269.98 C 293.71 277.13 291.78 285.93 293.75 294.06 C 294.74 298.84 298.41 303.02 303.05 304.54 C 312.00 306.86 321.24 304.32 329.65 301.18 C 328.33 294.31 327.86 287.13 329.69 280.31 C 330.69 275.90 332.89 271.92 334.89 267.92 C 329.36 263.82 323.06 260.30 316.07 259.79 C 308.65 259.07 301.45 263.64 297.88 269.98 M 376.19 269.71 C 382.31 280.22 380.96 293.12 377.20 304.19 C 383.77 308.58 391.03 312.31 398.97 313.31 C 407.18 314.26 415.70 310.05 420.05 303.03 C 425.21 295.51 426.77 285.91 425.29 277.00 C 423.92 269.88 418.68 262.84 411.14 261.73 C 398.92 259.74 386.94 264.36 376.19 269.71 M 344.22 286.97 C 344.01 290.71 344.28 294.45 344.57 298.19 C 350.01 301.01 356.30 302.59 362.31 300.61 C 364.56 292.54 367.28 282.62 361.31 275.49 C 357.09 275.43 352.86 275.40 348.64 275.35 C 346.61 278.96 344.44 282.73 344.22 286.97 Z"/><path fill="#222222" opacity="1.00" d=" M 424.57 86.84 C 438.36 84.52 453.37 88.72 463.51 98.47 C 473.62 107.33 478.61 120.86 479.61 134.01 C 480.95 163.19 463.09 192.63 436.05 204.08 C 426.02 208.40 414.75 209.79 404.01 207.73 C 392.04 205.19 381.06 197.70 374.81 187.11 C 368.11 176.79 365.52 164.13 366.75 151.95 C 368.72 129.10 381.94 107.44 401.49 95.40 C 408.42 90.83 416.51 88.48 424.57 86.84 M 415.32 105.46 C 402.27 111.53 391.60 122.70 386.39 136.13 C 394.73 141.17 404.21 144.80 414.06 144.90 C 421.41 145.00 428.86 145.17 436.07 143.50 C 445.55 141.25 454.89 138.42 463.82 134.51 C 463.46 121.33 455.42 107.95 442.66 103.50 C 433.75 100.60 423.78 101.55 415.32 105.46 M 384.39 171.72 C 386.76 179.96 392.74 187.47 401.05 190.23 C 399.61 183.90 397.42 177.54 398.06 170.95 C 398.27 166.84 399.75 162.82 399.37 158.68 C 393.90 155.90 387.69 154.97 382.23 152.11 C 381.49 158.72 381.99 165.47 384.39 171.72 M 415.79 160.69 C 414.14 165.28 412.98 170.13 413.48 175.04 C 413.75 181.63 417.23 187.46 420.83 192.78 C 440.97 188.60 456.54 171.44 462.15 152.10 C 447.27 157.28 431.68 161.41 415.79 160.69 Z"/><path fill="#222222" opacity="1.00" d=" M 78.27 147.33 C 86.38 144.98 94.86 151.84 95.30 159.99 C 95.91 167.41 89.65 174.80 82.06 174.71 C 77.59 175.23 73.12 173.18 70.19 169.85 C 66.98 165.29 66.13 158.75 69.15 153.88 C 71.06 150.51 74.56 148.25 78.27 147.33 Z"/><path fill="#222222" opacity="1.00" d=" M 468.44 203.34 C 472.09 203.05 475.78 203.48 478.78 205.76 C 478.99 209.66 477.59 213.21 474.68 215.81 C 471.17 215.60 468.21 213.80 465.87 211.28 C 466.51 208.56 467.36 205.91 468.44 203.34 Z"/><path fill="#222222" opacity="1.00" d=" M 47.20 223.09 C 51.79 220.83 58.35 225.13 57.52 230.33 C 57.05 235.88 55.28 241.39 56.12 247.00 C 57.17 253.85 59.72 260.54 63.91 266.10 C 66.56 269.96 70.19 273.34 71.50 277.96 C 72.75 283.16 67.06 287.30 62.31 286.44 C 58.70 285.24 56.13 282.21 53.99 279.20 C 49.77 273.14 45.73 266.85 43.17 259.88 C 40.15 251.99 40.06 243.35 40.68 235.03 C 41.15 230.47 42.27 224.81 47.20 223.09 Z"/><path fill="#222222" opacity="1.00" d=" M 482.80 235.05 C 479.54 231.82 481.26 225.22 485.97 224.49 C 489.05 223.71 491.41 226.26 493.77 227.75 C 493.47 230.75 493.60 234.56 490.56 236.26 C 488.05 236.98 484.64 237.33 482.80 235.05 Z"/><path fill="#222222" opacity="1.00" d=" M 450.32 230.97 C 450.53 225.46 459.61 224.25 461.68 229.09 C 463.02 231.37 461.79 234.01 461.59 236.44 C 459.70 237.10 457.83 237.83 455.88 238.30 C 452.43 237.83 449.36 234.63 450.32 230.97 Z"/><path fill="#222222" opacity="1.00" d=" M 73.78 232.79 C 77.81 231.03 82.06 232.93 85.47 235.14 C 85.38 239.66 85.61 244.20 86.47 248.65 C 86.81 251.40 87.67 254.53 85.96 257.01 C 83.78 259.97 79.05 261.47 75.95 259.04 C 71.70 256.13 70.49 250.72 69.89 245.93 C 69.42 241.35 70.14 235.99 73.78 232.79 Z"/><path fill="#222222" opacity="1.00" d=" M 202.57 253.68 C 207.43 251.84 212.28 256.30 212.49 261.07 C 211.13 265.42 208.01 268.95 206.51 273.25 C 203.38 282.23 203.08 292.77 207.98 301.18 C 209.21 303.61 211.27 306.02 210.73 308.93 C 210.39 313.56 204.64 316.93 200.57 314.45 C 195.33 311.00 193.01 304.75 191.18 299.03 C 187.37 287.34 189.67 274.55 194.65 263.58 C 196.61 259.87 198.56 255.56 202.57 253.68 Z"/><path fill="#222222" opacity="1.00" d=" M 476.03 276.07 C 487.92 268.04 500.37 260.56 514.00 255.85 L 514.00 270.57 C 497.02 278.52 480.72 288.20 466.61 300.63 C 458.06 308.45 449.99 316.82 442.91 326.00 L 426.30 326.00 C 429.89 321.33 433.08 316.36 436.90 311.86 C 447.91 297.91 461.46 286.16 476.03 276.07 Z"/><path fill="#222222" opacity="1.00" d=" M 150.93 288.51 C 149.63 284.59 153.01 281.57 155.64 279.27 C 157.36 279.48 159.15 279.49 160.83 280.00 C 163.80 281.59 165.55 284.75 168.48 286.41 C 171.96 288.00 176.04 287.74 179.41 289.66 C 183.14 292.08 183.43 298.13 180.05 301.00 C 177.46 303.56 173.52 302.62 170.31 302.20 C 162.31 300.83 154.16 296.28 150.93 288.51 Z"/></g><g id="#6c6c6cff"><path fill="#6c6c6c" opacity="1.00" d=" M 239.16 73.76 C 229.35 63.74 225.12 49.58 225.03 35.80 C 237.83 44.81 252.63 50.58 267.85 53.96 C 283.32 57.43 299.16 59.22 315.01 59.53 C 322.65 59.84 329.76 56.72 336.95 54.64 C 371.99 44.76 409.53 40.19 445.36 48.62 C 472.13 55.18 497.16 70.05 514.00 92.10 L 514.00 255.85 C 500.37 260.56 487.92 268.04 476.03 276.07 C 461.46 286.16 447.91 297.91 436.90 311.86 C 433.08 316.36 429.89 321.33 426.30 326.00 L 411.76 326.00 C 421.95 322.45 430.43 314.56 434.99 304.82 C 438.75 296.44 440.56 287.12 439.62 277.95 C 438.33 266.14 431.14 254.51 419.78 250.09 C 409.79 245.63 398.54 247.26 388.29 249.86 C 392.07 246.83 396.22 243.67 397.79 238.88 C 400.20 231.73 397.81 223.69 392.55 218.44 C 382.55 207.37 366.14 204.72 352.11 208.01 C 344.94 209.05 336.98 213.04 330.06 209.14 C 326.57 207.55 326.05 203.51 325.28 200.21 C 336.30 193.10 345.37 183.18 351.80 171.78 C 359.33 157.95 362.51 141.62 359.57 126.06 C 356.73 110.37 346.16 95.64 331.01 89.85 C 321.23 85.73 310.16 85.19 299.97 88.07 C 284.18 91.85 270.83 102.47 261.44 115.45 C 252.09 128.98 246.49 145.47 247.77 162.03 C 248.94 178.64 257.67 195.48 272.93 203.17 C 284.91 209.99 299.53 209.82 312.48 206.13 C 314.85 212.30 318.67 218.22 324.79 221.21 C 328.78 223.36 333.36 223.77 337.77 224.35 C 343.37 232.21 348.87 240.71 357.64 245.39 C 364.96 250.25 373.81 251.67 382.44 251.59 C 374.61 254.42 367.74 260.60 359.03 260.33 C 354.94 260.26 350.70 260.61 346.76 259.31 C 342.42 257.08 338.98 253.43 334.55 251.32 C 328.14 248.21 321.17 245.50 313.93 245.83 C 304.46 246.21 295.14 250.78 289.41 258.40 C 281.04 268.45 278.00 282.20 279.79 295.01 C 281.29 303.30 286.12 311.22 293.62 315.36 C 302.81 320.73 314.12 319.76 324.08 317.38 C 328.86 316.39 333.26 313.99 338.11 313.30 C 342.90 313.58 347.16 316.23 351.92 316.76 C 356.84 317.68 361.73 316.42 366.58 315.74 C 369.24 315.16 371.51 316.93 373.67 318.18 C 378.89 321.61 384.65 324.18 390.63 326.00 L 298.33 326.00 C 289.90 317.90 282.15 309.04 275.50 299.43 C 271.00 293.44 271.62 285.06 266.53 279.44 C 263.02 275.18 257.73 273.14 252.67 271.39 C 257.74 262.97 263.10 254.49 265.68 244.91 C 268.33 235.91 268.92 225.79 264.80 217.14 C 260.89 208.81 253.82 201.42 244.71 199.09 C 238.38 197.48 232.00 199.77 226.05 201.78 C 225.63 180.47 228.24 159.00 234.96 138.73 C 239.32 126.37 244.70 114.17 252.80 103.76 C 255.09 100.74 257.96 98.12 259.72 94.72 C 261.19 91.72 260.08 87.81 257.21 86.08 C 251.15 82.05 244.05 79.38 239.16 73.76 M 424.57 86.84 C 416.51 88.48 408.42 90.83 401.49 95.40 C 381.94 107.44 368.72 129.10 366.75 151.95 C 365.52 164.13 368.11 176.79 374.81 187.11 C 381.06 197.70 392.04 205.19 404.01 207.73 C 414.75 209.79 426.02 208.40 436.05 204.08 C 463.09 192.63 480.95 163.19 479.61 134.01 C 478.61 120.86 473.62 107.33 463.51 98.47 C 453.37 88.72 438.36 84.52 424.57 86.84 M 468.44 203.34 C 467.36 205.91 466.51 208.56 465.87 211.28 C 468.21 213.80 471.17 215.60 474.68 215.81 C 477.59 213.21 478.99 209.66 478.78 205.76 C 475.78 203.48 472.09 203.05 468.44 203.34 M 482.80 235.05 C 484.64 237.33 488.05 236.98 490.56 236.26 C 493.60 234.56 493.47 230.75 493.77 227.75 C 491.41 226.26 489.05 223.71 485.97 224.49 C 481.26 225.22 479.54 231.82 482.80 235.05 M 450.32 230.97 C 449.36 234.63 452.43 237.83 455.88 238.30 C 457.83 237.83 459.70 237.10 461.59 236.44 C 461.79 234.01 463.02 231.37 461.68 229.09 C 459.61 224.25 450.53 225.46 450.32 230.97 Z"/><path fill="#6c6c6c" opacity="1.00" d=" M 61.88 62.68 C 78.05 49.33 100.85 43.35 121.11 50.00 C 134.36 53.51 146.41 62.07 153.02 74.22 C 162.29 90.71 163.06 110.63 159.94 128.91 C 166.17 131.76 172.25 134.95 178.66 137.39 C 178.69 137.84 178.73 138.76 178.75 139.22 C 172.13 142.00 165.69 145.22 159.08 148.02 C 156.28 149.32 152.95 150.48 151.69 153.58 C 148.17 160.73 144.02 167.65 138.54 173.48 C 120.99 193.91 91.52 204.89 65.16 197.45 C 52.87 194.06 41.65 186.04 35.36 174.83 C 30.45 166.06 27.38 156.15 27.21 146.06 C 27.06 135.65 26.81 125.06 29.56 114.91 C 34.31 94.65 45.56 75.73 61.88 62.68 M 95.06 76.21 C 88.00 77.53 82.67 83.21 79.25 89.21 C 75.70 95.67 72.52 102.58 71.91 110.02 C 70.86 119.68 73.59 129.15 75.66 138.48 C 82.41 139.41 89.16 141.21 96.00 141.01 C 101.68 137.94 105.24 132.13 108.77 126.92 C 114.37 117.63 119.02 107.16 118.56 96.08 C 118.65 89.76 115.91 83.11 110.36 79.74 C 105.84 77.00 100.39 74.94 95.06 76.21 M 78.27 147.33 C 74.56 148.25 71.06 150.51 69.15 153.88 C 66.13 158.75 66.98 165.29 70.19 169.85 C 73.12 173.18 77.59 175.23 82.06 174.71 C 89.65 174.80 95.91 167.41 95.30 159.99 C 94.86 151.84 86.38 144.98 78.27 147.33 Z"/><path fill="#6c6c6c" opacity="1.00" d=" M 298.65 104.64 C 305.58 101.54 313.52 101.13 320.90 102.62 C 329.54 104.75 337.17 110.80 341.06 118.82 C 343.90 124.12 344.38 130.22 345.72 135.98 C 338.04 139.72 329.44 140.44 321.11 141.72 C 308.41 143.71 295.31 142.64 282.98 139.06 C 278.23 137.49 273.88 134.99 269.43 132.75 C 274.79 119.97 285.74 109.64 298.65 104.64 Z"/><path fill="#6c6c6c" opacity="1.00" d=" M 415.32 105.46 C 423.78 101.55 433.75 100.60 442.66 103.50 C 455.42 107.95 463.46 121.33 463.82 134.51 C 454.89 138.42 445.55 141.25 436.07 143.50 C 428.86 145.17 421.41 145.00 414.06 144.90 C 404.21 144.80 394.73 141.17 386.39 136.13 C 391.60 122.70 402.27 111.53 415.32 105.46 Z"/></g><g id="#9f9f9fff"><path fill="#9f9f9f" opacity="1.00" d=" M 415.79 160.69 C 431.68 161.41 447.27 157.28 462.15 152.10 C 456.54 171.44 440.97 188.60 420.83 192.78 C 417.23 187.46 413.75 181.63 413.48 175.04 C 412.98 170.13 414.14 165.28 415.79 160.69 Z"/><path fill="#9f9f9f" opacity="1.00" d=" M 324.01 157.03 C 330.34 156.44 336.48 154.57 342.82 154.05 C 337.38 170.70 324.58 185.15 307.99 191.24 C 304.49 192.65 300.67 192.69 296.96 192.70 C 295.98 188.84 294.55 185.03 294.51 181.01 C 294.19 173.21 296.61 165.67 298.85 158.31 C 307.19 157.20 315.66 158.23 324.01 157.03 Z"/><path fill="#9f9f9f" opacity="1.00" d=" M 141.55 189.56 C 142.77 188.77 144.22 186.85 145.80 188.04 C 152.81 192.16 158.21 198.43 164.50 203.50 C 176.11 213.90 187.85 224.17 199.17 234.87 C 201.43 236.76 203.89 239.12 207.06 238.93 C 210.19 238.90 212.17 236.12 214.03 233.99 C 218.87 227.60 224.32 221.52 231.00 217.01 C 234.45 214.61 239.03 213.35 243.07 214.93 C 249.76 218.53 253.32 226.59 252.32 234.01 C 250.92 244.05 245.91 253.09 240.57 261.54 C 237.52 266.50 233.71 271.02 231.28 276.35 C 228.97 280.96 232.81 287.20 237.95 287.34 C 242.72 287.63 247.74 285.64 252.32 287.72 C 255.52 289.06 256.85 292.76 256.81 296.01 C 257.17 301.78 253.43 306.69 249.81 310.80 C 244.01 316.88 237.29 322.19 229.78 326.00 L 144.54 326.00 C 135.28 325.70 126.00 325.85 116.74 325.76 C 111.86 315.04 108.60 302.48 113.20 291.08 C 118.81 277.36 132.38 268.89 145.82 264.09 C 149.18 262.90 153.45 261.08 153.88 257.01 C 154.64 252.38 150.71 249.08 147.98 245.97 C 136.63 233.74 126.56 218.83 125.45 201.69 C 131.16 198.13 136.53 194.05 141.55 189.56 M 202.57 253.68 C 198.56 255.56 196.61 259.87 194.65 263.58 C 189.67 274.55 187.37 287.34 191.18 299.03 C 193.01 304.75 195.33 311.00 200.57 314.45 C 204.64 316.93 210.39 313.56 210.73 308.93 C 211.27 306.02 209.21 303.61 207.98 301.18 C 203.08 292.77 203.38 282.23 206.51 273.25 C 208.01 268.95 211.13 265.42 212.49 261.07 C 212.28 256.30 207.43 251.84 202.57 253.68 M 150.93 288.51 C 154.16 296.28 162.31 300.83 170.31 302.20 C 173.52 302.62 177.46 303.56 180.05 301.00 C 183.43 298.13 183.14 292.08 179.41 289.66 C 176.04 287.74 171.96 288.00 168.48 286.41 C 165.55 284.75 163.80 281.59 160.83 280.00 C 159.15 279.49 157.36 279.48 155.64 279.27 C 153.01 281.57 149.63 284.59 150.93 288.51 Z"/><path fill="#9f9f9f" opacity="1.00" d=" M 297.88 269.98 C 301.45 263.64 308.65 259.07 316.07 259.79 C 323.06 260.30 329.36 263.82 334.89 267.92 C 332.89 271.92 330.69 275.90 329.69 280.31 C 327.86 287.13 328.33 294.31 329.65 301.18 C 321.24 304.32 312.00 306.86 303.05 304.54 C 298.41 303.02 294.74 298.84 293.75 294.06 C 291.78 285.93 293.71 277.13 297.88 269.98 Z"/><path fill="#9f9f9f" opacity="1.00" d=" M 376.19 269.71 C 386.94 264.36 398.92 259.74 411.14 261.73 C 418.68 262.84 423.92 269.88 425.29 277.00 C 426.77 285.91 425.21 295.51 420.05 303.03 C 415.70 310.05 407.18 314.26 398.97 313.31 C 391.03 312.31 383.77 308.58 377.20 304.19 C 380.96 293.12 382.31 280.22 376.19 269.71 Z"/><path fill="#9f9f9f" opacity="1.00" d=" M 344.22 286.97 C 344.44 282.73 346.61 278.96 348.64 275.35 C 352.86 275.40 357.09 275.43 361.31 275.49 C 367.28 282.62 364.56 292.54 362.31 300.61 C 356.30 302.59 350.01 301.01 344.57 298.19 C 344.28 294.45 344.01 290.71 344.22 286.97 Z"/></g></svg>