<?xml version="1.0" encoding="UTF-8"?><!DOCTYPE svg PUBLIC "-//W3C//DTD SVG 1.1//EN" "http://www.w3.org/Graphics/SVG/1.1/DTD/svg11.dtd"><svg width="1264pt" height="1264pt" viewBox="0 0 1264 1264" version="1.1" xmlns="http://www.w3.org/2000/svg"><g id="#a2a2a2ff"><path fill="#a2a2a2" opacity="1.00" d=" M 0.00 0.00 L 1264.00 0.00 L 1264.00 1264.00 L 0.00 1264.00 L 0.00 0.00 M 454.57 237.88 C 447.45 237.79 440.87 240.98 435.85 245.88 C 432.00 249.71 432.61 255.65 430.34 260.30 C 423.05 278.01 411.06 293.26 398.91 307.88 C 373.14 338.09 343.67 364.96 312.72 389.77 C 282.40 413.57 250.62 435.87 216.00 453.02 C 202.64 459.84 188.52 465.20 173.87 468.49 C 168.20 470.33 161.08 472.47 159.41 479.02 C 157.16 485.64 162.45 491.06 165.92 496.02 C 184.39 522.71 197.54 552.66 209.07 582.89 C 225.43 626.81 237.63 672.19 247.17 718.05 C 262.20 791.68 271.04 866.76 270.45 941.97 C 270.29 964.98 269.11 988.00 266.25 1010.84 C 263.43 1033.06 259.31 1055.34 251.26 1076.32 C 249.23 1081.56 251.03 1088.14 255.98 1091.06 C 259.55 1093.54 264.09 1092.83 268.13 1092.33 C 271.05 1091.05 274.01 1089.58 275.93 1086.93 C 288.37 1070.88 300.17 1054.33 312.43 1038.14 C 319.35 1048.97 326.43 1059.69 333.37 1070.50 C 335.25 1073.25 336.93 1076.37 339.87 1078.15 C 344.27 1080.99 350.04 1080.48 354.77 1078.79 C 360.87 1076.19 362.29 1069.19 365.23 1063.94 C 375.21 1041.70 384.55 1019.17 394.13 996.76 C 399.82 1000.32 404.86 1004.80 410.30 1008.73 C 429.73 1023.47 449.08 1038.33 468.52 1053.08 C 449.17 1050.06 429.49 1048.95 409.97 1050.77 C 406.73 1051.47 403.22 1052.26 401.01 1054.98 C 396.01 1060.80 392.01 1067.39 387.51 1073.60 C 373.63 1093.71 359.72 1113.80 345.77 1133.87 C 343.34 1137.04 341.41 1140.90 341.96 1145.03 C 342.26 1150.72 347.47 1155.37 353.06 1155.56 C 368.66 1164.14 385.05 1171.18 401.78 1177.24 C 443.93 1192.38 487.76 1202.44 531.91 1209.74 C 578.51 1217.25 625.72 1221.54 672.96 1221.05 C 699.50 1220.13 726.32 1218.66 752.11 1211.80 C 755.99 1214.92 761.62 1215.39 765.97 1212.93 C 781.09 1212.78 795.79 1208.55 810.10 1204.05 C 832.16 1196.87 853.68 1187.97 874.36 1177.46 C 888.53 1170.50 902.31 1162.58 914.77 1152.84 C 918.51 1156.30 924.40 1157.58 928.94 1154.89 C 934.33 1152.14 936.53 1145.16 934.27 1139.65 C 931.43 1132.65 927.31 1126.21 922.78 1120.18 C 904.08 1095.65 879.19 1076.44 852.52 1061.27 C 833.19 1050.45 812.47 1041.67 790.59 1037.71 C 796.19 1030.97 803.16 1025.49 809.66 1019.64 C 824.26 1007.55 839.71 995.78 857.60 989.04 C 865.90 1001.07 873.67 1014.17 875.69 1028.90 C 876.31 1032.64 875.58 1036.81 877.75 1040.15 C 879.64 1043.49 883.21 1045.67 887.00 1046.09 C 892.48 1047.13 897.88 1045.19 902.86 1043.09 C 914.36 1038.24 924.86 1031.41 935.09 1024.34 C 951.21 1012.95 966.44 1000.28 980.54 986.47 C 992.58 974.98 1003.65 962.46 1013.23 948.85 C 1030.77 967.59 1048.30 986.35 1065.94 1004.99 C 1070.45 1009.28 1074.23 1014.59 1079.92 1017.44 C 1083.40 1017.47 1087.12 1018.07 1090.40 1016.53 C 1094.23 1014.81 1097.23 1011.27 1098.17 1007.17 C 1101.60 981.96 1102.54 956.48 1103.11 931.06 C 1103.55 854.31 1095.96 777.71 1083.93 701.97 C 1076.82 658.23 1068.08 614.74 1057.34 571.74 C 1045.99 526.32 1032.44 481.39 1015.12 437.87 C 1004.04 411.09 992.12 384.40 975.55 360.50 C 968.65 350.94 961.31 341.39 951.61 334.52 C 950.58 331.84 950.38 328.75 948.34 326.55 C 944.99 322.81 940.52 320.32 936.35 317.62 C 924.48 310.60 911.78 305.07 898.93 300.11 C 874.18 290.54 848.61 283.27 822.91 276.75 C 759.25 260.88 694.33 250.37 629.14 243.29 C 571.20 237.48 512.77 233.74 454.57 237.88 Z"/><path fill="#a2a2a2" opacity="1.00" d=" M 455.51 261.83 C 480.62 259.90 505.82 260.26 530.98 260.61 C 593.02 262.77 654.85 269.36 716.09 279.48 C 762.79 287.25 809.25 296.94 854.64 310.51 C 870.24 315.46 885.90 320.38 900.92 326.92 C 912.79 331.90 924.39 337.81 934.48 345.88 C 934.47 346.47 934.45 347.64 934.44 348.23 C 936.32 352.22 939.79 355.05 942.75 358.21 C 952.60 368.43 960.18 380.56 967.21 392.82 C 980.87 416.76 991.28 442.36 1000.90 468.13 C 1016.61 511.52 1029.05 556.04 1039.51 600.97 C 1050.87 649.82 1059.70 699.25 1066.44 748.95 C 1069.98 776.23 1073.18 803.57 1075.08 831.03 C 1077.21 853.59 1077.78 876.27 1078.68 898.91 C 1079.40 926.29 1078.66 953.70 1076.63 981.02 C 1057.61 961.14 1039.02 940.86 1020.08 920.91 C 1014.09 914.42 1002.26 916.64 998.38 924.33 C 992.56 939.23 981.16 950.92 970.48 962.47 C 948.94 984.06 925.30 1003.98 898.52 1018.78 C 893.73 999.56 883.34 982.21 870.90 966.98 C 854.75 947.57 834.97 930.57 811.62 920.50 C 805.01 917.45 797.33 915.81 790.32 918.54 C 790.37 918.94 790.45 919.73 790.49 920.13 C 786.60 920.78 785.10 924.94 782.59 927.49 C 758.33 954.91 733.79 982.08 709.72 1009.68 C 708.75 1010.58 708.03 1012.47 706.41 1011.68 C 696.92 994.45 684.83 978.79 671.85 964.06 C 659.90 951.00 647.26 938.11 631.73 929.31 C 628.05 927.60 623.49 927.96 620.07 930.12 C 580.36 961.56 540.14 992.40 500.32 1023.73 C 500.21 1019.57 500.63 1015.44 500.99 1011.32 C 510.61 1003.17 514.65 990.65 517.99 978.93 C 525.60 947.20 527.66 914.49 529.30 882.00 C 530.07 861.36 530.28 840.69 530.62 820.04 C 530.49 798.35 529.76 776.67 529.50 754.98 C 526.06 657.32 517.82 559.86 505.45 462.93 C 503.06 444.68 500.53 426.45 497.46 408.30 C 497.17 403.32 495.76 398.36 492.22 394.69 C 490.89 392.89 489.99 390.80 489.54 388.62 C 488.10 381.37 487.87 373.90 485.96 366.73 C 488.13 363.02 488.28 358.56 487.32 354.46 C 483.41 337.42 479.66 320.35 475.85 303.30 C 475.01 299.81 474.05 296.31 472.32 293.15 C 471.61 291.96 470.88 290.80 470.17 289.63 C 468.90 283.98 466.56 278.56 463.12 273.89 C 460.69 270.74 457.09 268.89 453.76 266.88 C 454.32 265.19 454.91 263.51 455.51 261.83 M 777.98 497.41 C 765.13 480.76 748.12 467.36 728.87 458.91 C 695.68 444.00 656.05 444.64 623.31 460.46 C 594.21 474.20 570.96 499.60 559.63 529.69 C 557.42 535.35 556.43 541.39 554.02 546.98 C 553.38 553.33 551.93 559.59 551.77 566.01 C 549.25 599.21 560.79 633.12 582.88 658.01 C 606.64 685.35 642.73 701.61 678.99 700.86 C 717.30 701.00 754.85 681.99 778.07 651.63 C 784.60 659.52 791.66 667.04 799.86 673.22 C 827.71 695.06 865.37 703.75 899.96 696.21 C 922.98 691.40 944.67 679.94 961.41 663.39 C 990.69 635.50 1005.13 592.88 998.76 552.95 C 994.96 526.53 982.37 501.41 963.32 482.68 C 940.50 459.87 908.28 446.75 876.00 447.36 C 837.95 447.55 800.39 466.62 777.98 497.41 Z"/></g><g id="#070707ff"><path fill="#070707" opacity="1.00" d=" M 454.57 237.88 C 512.77 233.74 571.20 237.48 629.14 243.29 C 694.33 250.37 759.25 260.88 822.91 276.75 C 848.61 283.27 874.18 290.54 898.93 300.11 C 911.78 305.07 924.48 310.60 936.35 317.62 C 940.52 320.32 944.99 322.81 948.34 326.55 C 950.38 328.75 950.58 331.84 951.61 334.52 C 961.31 341.39 968.65 350.94 975.55 360.50 C 992.12 384.40 1004.04 411.09 1015.12 437.87 C 1032.44 481.39 1045.99 526.32 1057.34 571.74 C 1068.08 614.74 1076.82 658.23 1083.93 701.97 C 1095.96 777.71 1103.55 854.31 1103.11 931.06 C 1102.54 956.48 1101.60 981.96 1098.17 1007.17 C 1097.23 1011.27 1094.23 1014.81 1090.40 1016.53 C 1087.12 1018.07 1083.40 1017.47 1079.92 1017.44 C 1074.23 1014.59 1070.45 1009.28 1065.94 1004.99 C 1048.30 986.35 1030.77 967.59 1013.23 948.85 C 1003.65 962.46 992.58 974.98 980.54 986.47 C 966.44 1000.28 951.21 1012.95 935.09 1024.34 C 924.86 1031.41 914.36 1038.24 902.86 1043.09 C 897.88 1045.19 892.48 1047.13 887.00 1046.09 C 883.21 1045.67 879.64 1043.49 877.75 1040.15 C 875.58 1036.81 876.31 1032.64 875.69 1028.90 C 873.67 1014.17 865.90 1001.07 857.60 989.04 C 839.71 995.78 824.26 1007.55 809.66 1019.64 C 803.16 1025.49 796.19 1030.97 790.59 1037.71 C 812.47 1041.67 833.19 1050.45 852.52 1061.27 C 879.19 1076.44 904.08 1095.65 922.78 1120.18 C 927.31 1126.21 931.43 1132.65 934.27 1139.65 C 936.53 1145.16 934.33 1152.14 928.94 1154.89 C 924.40 1157.58 918.51 1156.30 914.77 1152.84 C 911.75 1149.12 910.08 1144.55 907.45 1140.58 C 899.20 1127.52 888.02 1116.61 876.28 1106.70 C 860.24 1093.45 842.48 1082.26 823.58 1073.57 C 806.59 1066.12 788.58 1059.70 769.82 1059.51 C 757.34 1073.72 746.03 1088.96 735.86 1104.91 C 726.52 1119.98 717.93 1135.80 713.18 1152.97 C 729.54 1163.63 745.40 1175.09 760.51 1187.47 C 764.56 1190.94 769.67 1194.02 771.33 1199.42 C 772.80 1204.55 770.34 1210.05 765.97 1212.93 C 761.62 1215.39 755.99 1214.92 752.11 1211.80 C 725.10 1189.14 695.77 1169.37 665.06 1152.09 C 627.10 1130.53 587.17 1112.45 545.98 1098.02 C 529.67 1092.66 513.32 1087.35 496.58 1083.49 C 470.53 1077.19 443.80 1072.92 416.92 1073.69 C 399.75 1098.30 382.76 1123.02 365.66 1147.67 C 362.90 1152.01 358.58 1155.97 353.06 1155.56 C 347.47 1155.37 342.26 1150.72 341.96 1145.03 C 341.41 1140.90 343.34 1137.04 345.77 1133.87 C 359.72 1113.80 373.63 1093.71 387.51 1073.60 C 392.01 1067.39 396.01 1060.80 401.01 1054.98 C 403.22 1052.26 406.73 1051.47 409.97 1050.77 C 429.49 1048.95 449.17 1050.06 468.52 1053.08 C 449.08 1038.33 429.73 1023.47 410.30 1008.73 C 404.86 1004.80 399.82 1000.32 394.13 996.76 C 384.55 1019.17 375.21 1041.70 365.23 1063.94 C 362.29 1069.19 360.87 1076.19 354.77 1078.79 C 350.04 1080.48 344.27 1080.99 339.87 1078.15 C 336.93 1076.37 335.25 1073.25 333.37 1070.50 C 326.43 1059.69 319.35 1048.97 312.43 1038.14 C 300.17 1054.33 288.37 1070.88 275.93 1086.93 C 274.01 1089.58 271.05 1091.05 268.13 1092.33 C 264.09 1092.83 259.55 1093.54 255.98 1091.06 C 251.03 1088.14 249.23 1081.56 251.26 1076.32 C 259.31 1055.34 263.43 1033.06 266.25 1010.84 C 269.11 988.00 270.29 964.98 270.45 941.97 C 271.04 866.76 262.20 791.68 247.17 718.05 C 237.63 672.19 225.43 626.81 209.07 582.89 C 197.54 552.66 184.39 522.71 165.92 496.02 C 162.45 491.06 157.16 485.64 159.41 479.02 C 161.08 472.47 168.20 470.33 173.87 468.49 C 188.52 465.20 202.64 459.84 216.00 453.02 C 250.62 435.87 282.40 413.57 312.72 389.77 C 343.67 364.96 373.14 338.09 398.91 307.88 C 411.06 293.26 423.05 278.01 430.34 260.30 C 432.61 255.65 432.00 249.71 435.85 245.88 C 440.87 240.98 447.45 237.79 454.57 237.88 M 455.51 261.83 C 454.91 263.51 454.32 265.19 453.76 266.88 C 451.99 271.80 449.81 276.56 447.32 281.16 C 437.86 298.43 425.52 313.93 412.73 328.83 C 400.46 342.81 387.37 356.05 373.87 368.84 C 345.10 395.74 314.26 420.48 281.57 442.46 C 253.09 461.30 223.35 479.11 190.55 489.27 C 208.91 517.85 222.39 549.22 234.11 581.01 C 248.83 621.68 260.13 663.53 269.26 705.79 C 283.52 772.97 292.32 841.36 294.34 910.02 C 295.23 950.19 294.33 990.56 287.85 1030.28 C 291.93 1025.48 295.22 1020.08 299.27 1015.26 C 302.22 1011.55 307.31 1009.80 311.93 1010.75 C 317.70 1011.79 324.37 1012.86 328.03 1018.00 C 334.51 1027.61 340.67 1037.44 347.11 1047.09 C 357.07 1022.24 367.84 997.68 377.72 972.83 C 380.78 968.27 386.62 965.50 392.07 966.89 C 397.84 968.35 402.31 972.53 407.07 975.87 C 433.21 995.69 459.26 1015.64 485.39 1035.48 C 490.38 1031.58 495.38 1027.69 500.32 1023.73 C 540.14 992.40 580.36 961.56 620.07 930.12 C 623.49 927.96 628.05 927.60 631.73 929.31 C 647.26 938.11 659.90 951.00 671.85 964.06 C 684.83 978.79 696.92 994.45 706.41 1011.68 C 708.03 1012.47 708.75 1010.58 709.72 1009.68 C 733.79 982.08 758.33 954.91 782.59 927.49 C 785.10 924.94 786.60 920.78 790.49 920.13 C 790.45 919.73 790.37 918.94 790.32 918.54 C 797.33 915.81 805.01 917.45 811.62 920.50 C 834.97 930.57 854.75 947.57 870.90 966.98 C 883.34 982.21 893.73 999.56 898.52 1018.78 C 925.30 1003.98 948.94 984.06 970.48 962.47 C 981.16 950.92 992.56 939.23 998.38 924.33 C 1002.26 916.64 1014.09 914.42 1020.08 920.91 C 1039.02 940.86 1057.61 961.14 1076.63 981.02 C 1078.66 953.70 1079.40 926.29 1078.68 898.91 C 1077.78 876.27 1077.21 853.59 1075.08 831.03 C 1073.18 803.57 1069.98 776.23 1066.44 748.95 C 1059.70 699.25 1050.87 649.82 1039.51 600.97 C 1029.05 556.04 1016.61 511.52 1000.90 468.13 C 991.28 442.36 980.87 416.76 967.21 392.82 C 960.18 380.56 952.60 368.43 942.75 358.21 C 939.79 355.05 936.32 352.22 934.44 348.23 C 934.45 347.64 934.47 346.47 934.48 345.88 C 924.39 337.81 912.79 331.90 900.92 326.92 C 885.90 320.38 870.24 315.46 854.64 310.51 C 809.25 296.94 762.79 287.25 716.09 279.48 C 654.85 269.36 593.02 262.77 530.98 260.61 C 505.82 260.26 480.62 259.90 455.51 261.83 M 716.01 1038.05 C 712.54 1038.37 708.20 1039.12 706.77 1042.82 C 701.91 1044.69 695.84 1045.15 691.87 1041.19 C 687.97 1038.08 687.92 1032.88 687.36 1028.40 C 682.27 1015.83 673.83 1005.01 665.65 994.33 C 654.28 980.15 642.04 966.53 627.97 954.97 C 583.43 989.15 539.55 1024.20 494.86 1058.19 C 525.14 1065.21 554.80 1074.80 583.68 1086.31 C 621.13 1101.16 657.34 1119.11 691.96 1139.72 C 698.53 1119.96 709.01 1101.76 720.38 1084.42 C 741.12 1053.55 765.92 1025.35 794.16 1001.12 C 808.50 989.04 823.82 977.88 840.83 969.84 C 829.46 958.61 816.40 948.78 801.75 942.23 C 773.27 974.26 744.99 1006.47 716.01 1038.05 Z"/><path fill="#070707" opacity="1.00" d=" M 452.93 294.63 C 455.60 292.40 458.42 289.90 462.06 289.58 C 465.87 289.01 469.12 291.51 472.32 293.15 C 474.05 296.31 475.01 299.81 475.85 303.30 C 479.66 320.35 483.41 337.42 487.32 354.46 C 488.28 358.56 488.13 363.02 485.96 366.73 C 482.78 370.50 477.60 372.82 472.72 371.23 C 468.08 369.92 464.88 365.71 463.92 361.12 C 460.02 343.43 456.00 325.75 452.09 308.06 C 451.00 303.05 450.40 297.51 452.94 292.83 C 452.93 293.28 452.93 294.18 452.93 294.63 Z"/><path fill="#070707" opacity="1.00" d=" M 474.25 411.36 C 474.47 404.71 480.19 398.78 486.99 399.19 C 492.33 399.00 495.34 404.17 497.46 408.30 C 500.53 426.45 503.06 444.68 505.45 462.93 C 517.82 559.86 526.06 657.32 529.50 754.98 C 529.76 776.67 530.49 798.35 530.62 820.04 C 530.28 840.69 530.07 861.36 529.30 882.00 C 527.66 914.49 525.60 947.20 517.99 978.93 C 514.65 990.65 510.61 1003.17 500.99 1011.32 C 497.71 1013.33 493.85 1014.95 489.94 1014.18 C 485.22 1013.40 481.23 1009.56 480.24 1004.89 C 479.08 1000.38 481.49 995.75 484.90 992.88 C 488.30 990.04 490.29 985.98 491.70 981.87 C 495.09 971.85 497.31 961.46 498.93 951.02 C 501.59 933.45 503.35 915.72 504.18 897.96 C 505.87 880.36 505.48 862.64 506.16 844.99 C 507.10 748.63 501.18 652.35 491.75 556.50 C 487.03 507.99 480.64 459.67 474.25 411.36 Z"/><path fill="#070707" opacity="1.00" d=" M 777.98 497.41 C 800.39 466.62 837.95 447.55 876.00 447.36 C 908.28 446.75 940.50 459.87 963.32 482.68 C 982.37 501.41 994.96 526.53 998.76 552.95 C 1005.13 592.88 990.69 635.50 961.41 663.39 C 944.67 679.94 922.98 691.40 899.96 696.21 C 865.37 703.75 827.71 695.06 799.86 673.22 C 791.66 667.04 784.60 659.52 778.07 651.63 C 754.85 681.99 717.30 701.00 678.99 700.86 C 642.73 701.61 606.64 685.35 582.88 658.01 C 560.79 633.12 549.25 599.21 551.77 566.01 C 551.93 559.59 553.38 553.33 554.02 546.98 C 556.43 541.39 557.42 535.35 559.63 529.69 C 570.96 499.60 594.21 474.20 623.31 460.46 C 656.05 444.64 695.68 444.00 728.87 458.91 C 748.12 467.36 765.13 480.76 777.98 497.41 M 675.03 466.03 C 660.27 488.49 651.32 514.46 646.89 540.85 C 652.95 540.91 659.00 540.71 665.06 540.44 C 681.51 539.48 698.01 539.55 714.47 538.62 C 709.41 512.81 700.93 487.75 690.09 463.82 C 686.08 463.67 682.07 463.23 678.06 463.41 C 676.43 463.23 675.88 465.02 675.03 466.03 M 847.48 533.93 C 866.30 532.88 885.16 532.68 903.99 531.85 C 900.67 508.57 894.23 485.78 886.17 463.73 C 885.90 463.53 885.36 463.12 885.09 462.92 C 879.69 462.15 874.20 462.49 868.78 462.85 C 856.76 484.72 850.70 509.34 847.48 533.93 M 634.87 471.94 C 604.04 484.59 579.96 511.93 570.72 543.89 C 593.03 542.65 615.39 542.51 637.71 541.36 C 639.49 534.40 640.52 527.28 642.52 520.37 C 647.65 500.54 655.26 481.23 666.19 463.85 C 655.47 465.24 644.84 467.69 634.87 471.94 M 799.43 495.49 C 794.79 499.97 790.91 505.15 786.45 509.81 C 791.25 517.96 795.13 526.65 798.05 535.65 C 811.58 535.07 825.11 534.50 838.65 534.29 C 841.95 510.15 847.53 486.01 858.43 464.08 C 836.19 468.29 815.21 479.20 799.43 495.49 M 895.28 463.93 C 903.61 485.73 908.84 508.54 913.01 531.45 C 933.01 531.23 952.96 529.59 972.97 529.43 C 973.95 529.09 975.96 529.86 976.27 528.48 C 962.53 495.06 930.94 469.87 895.28 463.93 M 700.12 465.55 C 710.70 488.72 718.12 513.20 723.33 538.09 C 742.94 537.76 762.54 536.92 782.14 536.12 C 769.43 500.51 737.18 472.91 700.12 465.55 M 914.23 540.05 C 916.80 559.63 918.66 579.33 918.37 599.11 C 924.94 599.06 931.51 598.77 938.09 598.56 C 952.82 597.50 967.60 597.58 982.34 596.68 C 986.47 577.26 985.93 556.72 979.74 537.80 C 973.48 537.83 967.21 537.97 960.96 538.29 C 945.40 539.38 929.80 539.25 914.23 540.05 M 846.54 542.53 C 844.09 562.17 844.61 582.05 845.63 601.77 C 849.67 602.56 853.79 601.85 857.88 601.82 C 875.20 600.64 892.57 600.50 909.91 599.67 C 909.96 579.86 908.49 560.03 905.44 540.46 C 885.79 540.80 866.18 541.99 846.54 542.53 M 800.51 544.19 C 805.33 563.67 805.36 584.35 800.76 603.88 C 812.96 603.65 825.16 603.08 837.35 602.35 C 835.28 582.54 836.00 562.56 837.67 542.75 C 825.27 543.05 812.91 543.97 800.51 544.19 M 724.74 547.11 C 728.24 566.79 729.70 586.85 729.18 606.83 C 736.50 606.90 743.78 606.05 751.09 605.91 C 762.35 605.32 773.64 605.36 784.90 604.69 C 788.94 589.62 790.57 573.66 787.79 558.22 C 786.99 553.84 786.62 549.27 784.97 545.12 C 784.23 545.03 782.74 544.85 782.00 544.77 C 762.92 545.87 743.79 545.61 724.74 547.11 M 645.38 549.69 C 642.42 569.71 641.47 590.19 644.01 610.32 C 652.00 610.08 660.00 609.82 667.98 609.21 C 685.48 608.46 703.02 608.35 720.48 606.88 C 721.24 586.93 719.37 566.97 716.26 547.29 C 692.62 547.81 669.01 549.00 645.38 549.69 M 601.93 551.18 C 590.96 551.84 579.96 552.29 568.97 552.22 C 564.52 572.45 566.23 594.06 573.70 613.37 C 594.10 611.88 614.56 611.66 634.99 610.61 C 633.73 590.44 633.82 570.14 636.51 550.08 C 624.99 550.59 613.45 550.66 601.93 551.18 M 956.07 606.28 C 943.49 607.16 930.85 606.87 918.29 608.00 C 917.69 632.05 914.99 656.54 906.03 679.05 C 940.73 668.67 969.38 640.12 979.77 605.42 C 971.86 605.44 963.97 605.98 956.07 606.28 M 847.07 610.53 C 847.36 620.25 849.63 629.78 851.62 639.26 C 855.37 654.73 860.40 670.24 869.32 683.58 C 877.99 683.97 886.76 683.31 895.27 681.56 C 906.56 658.90 908.78 633.08 909.86 608.16 C 888.92 608.72 868.02 610.23 847.07 610.53 M 798.45 612.62 C 795.42 621.47 791.79 630.14 786.99 638.18 C 795.44 649.53 805.61 659.76 817.75 667.15 C 829.95 675.10 843.93 679.92 858.21 682.51 C 856.06 677.20 853.06 672.29 851.16 666.88 C 844.11 649.01 840.46 630.05 837.98 611.08 C 824.81 611.77 811.61 611.77 798.45 612.62 M 728.47 615.39 C 727.13 637.98 722.22 660.80 711.08 680.69 C 743.40 670.72 770.42 645.20 782.01 613.41 C 764.15 613.65 746.33 615.00 728.47 615.39 M 680.98 617.23 C 669.05 618.27 657.06 618.18 645.10 618.69 C 645.81 626.27 647.65 633.70 649.59 641.06 C 654.12 656.55 660.62 672.16 672.31 683.67 C 673.32 684.59 674.33 685.91 675.89 685.76 C 683.49 685.98 691.22 685.37 698.60 683.64 C 701.68 680.17 703.82 675.99 706.03 671.95 C 714.77 654.58 718.61 635.13 719.91 615.85 C 706.93 616.41 693.95 616.73 680.98 617.23 M 577.03 621.41 C 591.99 654.88 624.87 679.16 661.03 684.58 C 658.84 680.95 656.14 677.66 654.05 673.98 C 644.08 657.31 639.29 638.16 636.25 619.15 C 625.16 619.76 614.06 619.93 602.96 620.37 C 594.34 621.10 585.68 621.18 577.03 621.41 Z"/></g><g id="#868686ff"><path fill="#868686" opacity="1.00" d=" M 453.76 266.88 C 457.09 268.89 460.69 270.74 463.12 273.89 C 466.56 278.56 468.90 283.98 470.17 289.63 C 464.72 286.27 456.04 286.42 452.94 292.83 C 450.40 297.51 451.00 303.05 452.09 308.06 C 456.00 325.75 460.02 343.43 463.92 361.12 C 464.88 365.71 468.08 369.92 472.72 371.23 C 477.60 372.82 482.78 370.50 485.96 366.73 C 487.87 373.90 488.10 381.37 489.54 388.62 C 489.99 390.80 490.89 392.89 492.22 394.69 C 487.52 394.01 482.76 394.06 478.04 394.51 C 476.46 396.55 474.58 398.50 473.82 401.04 C 472.90 404.44 473.77 407.96 474.25 411.36 C 480.64 459.67 487.03 507.99 491.75 556.50 C 501.18 652.35 507.10 748.63 506.16 844.99 C 505.48 862.64 505.87 880.36 504.18 897.96 C 503.35 915.72 501.59 933.45 498.93 951.02 C 497.31 961.46 495.09 971.85 491.70 981.87 C 490.29 985.98 488.30 990.04 484.90 992.88 C 481.49 995.75 479.08 1000.38 480.24 1004.89 C 481.23 1009.56 485.22 1013.40 489.94 1014.18 C 493.85 1014.95 497.71 1013.33 500.99 1011.32 C 500.63 1015.44 500.21 1019.57 500.32 1023.73 C 495.38 1027.69 490.38 1031.58 485.39 1035.48 C 459.26 1015.64 433.21 995.69 407.07 975.87 C 402.31 972.53 397.84 968.35 392.07 966.89 C 386.62 965.50 380.78 968.27 377.72 972.83 C 367.84 997.68 357.07 1022.24 347.11 1047.09 C 340.67 1037.44 334.51 1027.61 328.03 1018.00 C 324.37 1012.86 317.70 1011.79 311.93 1010.75 C 307.31 1009.80 302.22 1011.55 299.27 1015.26 C 295.22 1020.08 291.93 1025.48 287.85 1030.28 C 294.33 990.56 295.23 950.19 294.34 910.02 C 292.32 841.36 283.52 772.97 269.26 705.79 C 260.13 663.53 248.83 621.68 234.11 581.01 C 222.39 549.22 208.91 517.85 190.55 489.27 C 223.35 479.11 253.09 461.30 281.57 442.46 C 314.26 420.48 345.10 395.74 373.87 368.84 C 387.37 356.05 400.46 342.81 412.73 328.83 C 425.52 313.93 437.86 298.43 447.32 281.16 C 449.81 276.56 451.99 271.80 453.76 266.88 Z"/></g><g id="#3c3c3cff"><path fill="#3c3c3c" opacity="1.00" d=" M 452.94 292.83 C 456.04 286.42 464.72 286.27 470.17 289.63 C 470.88 290.80 471.61 291.96 472.32 293.15 C 469.12 291.51 465.87 289.01 462.06 289.58 C 458.42 289.90 455.60 292.40 452.93 294.63 C 452.93 294.18 452.93 293.28 452.94 292.83 Z"/></g><g id="#1f1f1fff"><path fill="#1f1f1f" opacity="1.00" d=" M 473.82 401.04 C 474.58 398.50 476.46 396.55 478.04 394.51 C 482.76 394.06 487.52 394.01 492.22 394.69 C 495.76 398.36 497.17 403.32 497.46 408.30 C 495.34 404.17 492.33 399.00 486.99 399.19 C 480.19 398.78 474.47 404.71 474.25 411.36 C 473.77 407.96 472.90 404.44 473.82 401.04 Z"/></g><g id="#585858ff"><path fill="#585858" opacity="1.00" d=" M 675.03 466.03 C 675.88 465.02 676.43 463.23 678.06 463.41 C 682.07 463.23 686.08 463.67 690.09 463.82 C 700.93 487.75 709.41 512.81 714.47 538.62 C 698.01 539.55 681.51 539.48 665.06 540.44 C 659.00 540.71 652.95 540.91 646.89 540.85 C 651.32 514.46 660.27 488.49 675.03 466.03 Z"/><path fill="#585858" opacity="1.00" d=" M 847.48 533.93 C 850.70 509.34 856.76 484.72 868.78 462.85 C 874.20 462.49 879.69 462.15 885.09 462.92 C 885.36 463.12 885.90 463.53 886.17 463.73 C 894.23 485.78 900.67 508.57 903.99 531.85 C 885.16 532.68 866.30 532.88 847.48 533.93 Z"/><path fill="#585858" opacity="1.00" d=" M 634.87 471.94 C 644.84 467.69 655.47 465.24 666.19 463.85 C 655.26 481.23 647.65 500.54 642.52 520.37 C 640.52 527.28 639.49 534.40 637.71 541.36 C 615.39 542.51 593.03 542.65 570.72 543.89 C 579.96 511.93 604.04 484.59 634.87 471.94 Z"/><path fill="#585858" opacity="1.00" d=" M 799.43 495.49 C 815.21 479.20 836.19 468.29 858.43 464.08 C 847.53 486.01 841.95 510.15 838.65 534.29 C 825.11 534.50 811.58 535.07 798.05 535.65 C 795.13 526.65 791.25 517.96 786.45 509.81 C 790.91 505.15 794.79 499.97 799.43 495.49 Z"/><path fill="#585858" opacity="1.00" d=" M 895.28 463.93 C 930.94 469.87 962.53 495.06 976.27 528.48 C 975.96 529.86 973.95 529.09 972.97 529.43 C 952.96 529.59 933.01 531.23 913.01 531.45 C 908.84 508.54 903.61 485.73 895.28 463.93 Z"/><path fill="#585858" opacity="1.00" d=" M 700.12 465.55 C 737.18 472.91 769.43 500.51 782.14 536.12 C 762.54 536.92 742.94 537.76 723.33 538.09 C 718.12 513.20 710.70 488.72 700.12 465.55 Z"/><path fill="#585858" opacity="1.00" d=" M 914.23 540.05 C 929.80 539.25 945.40 539.38 960.96 538.29 C 967.21 537.97 973.48 537.83 979.74 537.80 C 985.93 556.72 986.47 577.26 982.34 596.68 C 967.60 597.58 952.82 597.50 938.09 598.56 C 931.51 598.77 924.94 599.06 918.37 599.11 C 918.66 579.33 916.80 559.63 914.23 540.05 Z"/><path fill="#585858" opacity="1.00" d=" M 846.54 542.53 C 866.18 541.99 885.79 540.80 905.44 540.46 C 908.49 560.03 909.96 579.86 909.91 599.67 C 892.57 600.50 875.20 600.64 857.88 601.82 C 853.79 601.85 849.67 602.56 845.63 601.77 C 844.61 582.05 844.09 562.17 846.54 542.53 Z"/><path fill="#585858" opacity="1.00" d=" M 800.51 544.19 C 812.91 543.97 825.27 543.05 837.67 542.75 C 836.00 562.56 835.28 582.54 837.35 602.35 C 825.16 603.08 812.96 603.65 800.76 603.88 C 805.36 584.35 805.33 563.67 800.51 544.19 Z"/><path fill="#585858" opacity="1.00" d=" M 724.74 547.11 C 743.79 545.61 762.92 545.87 782.00 544.77 C 782.74 544.85 784.23 545.03 784.97 545.12 C 786.62 549.27 786.99 553.84 787.79 558.22 C 790.57 573.66 788.94 589.62 784.90 604.69 C 773.64 605.36 762.35 605.32 751.09 605.91 C 743.78 606.05 736.50 606.90 729.18 606.83 C 729.70 586.85 728.24 566.79 724.74 547.11 Z"/><path fill="#585858" opacity="1.00" d=" M 645.38 549.69 C 669.01 549.00 692.62 547.81 716.26 547.29 C 719.37 566.97 721.24 586.93 720.48 606.88 C 703.02 608.35 685.48 608.46 667.98 609.21 C 660.00 609.82 652.00 610.08 644.01 610.32 C 641.47 590.19 642.42 569.71 645.38 549.69 Z"/><path fill="#585858" opacity="1.00" d=" M 601.93 551.18 C 613.45 550.66 624.99 550.59 636.51 550.08 C 633.82 570.14 633.73 590.44 634.99 610.61 C 614.56 611.66 594.10 611.88 573.70 613.37 C 566.23 594.06 564.52 572.45 568.97 552.22 C 579.96 552.29 590.96 551.84 601.93 551.18 Z"/><path fill="#585858" opacity="1.00" d=" M 956.07 606.28 C 963.97 605.98 971.86 605.44 979.77 605.42 C 969.38 640.12 940.73 668.67 906.03 679.05 C 914.99 656.54 917.69 632.05 918.29 608.00 C 930.85 606.87 943.49 607.16 956.07 606.28 Z"/><path fill="#585858" opacity="1.00" d=" M 847.07 610.53 C 868.02 610.23 888.92 608.72 909.86 608.16 C 908.78 633.08 906.56 658.90 895.27 681.56 C 886.76 683.31 877.99 683.97 869.32 683.58 C 860.40 670.24 855.37 654.73 851.62 639.26 C 849.63 629.78 847.36 620.25 847.07 610.53 Z"/><path fill="#585858" opacity="1.00" d=" M 798.45 612.62 C 811.61 611.77 824.81 611.77 837.98 611.08 C 840.46 630.05 844.11 649.01 851.16 666.88 C 853.06 672.29 856.06 677.20 858.21 682.51 C 843.93 679.92 829.95 675.10 817.75 667.15 C 805.61 659.76 795.44 649.53 786.99 638.18 C 791.79 630.14 795.42 621.47 798.45 612.62 Z"/><path fill="#585858" opacity="1.00" d=" M 728.47 615.39 C 746.33 615.00 764.15 613.65 782.01 613.41 C 770.42 645.20 743.40 670.72 711.08 680.69 C 722.22 660.80 727.13 637.98 728.47 615.39 Z"/><path fill="#585858" opacity="1.00" d=" M 680.98 617.23 C 693.95 616.73 706.93 616.41 719.91 615.85 C 718.61 635.13 714.77 654.58 706.03 671.95 C 703.82 675.99 701.68 680.17 698.60 683.64 C 691.22 685.37 683.49 685.98 675.89 685.76 C 674.33 685.91 673.32 684.59 672.31 683.67 C 660.62 672.16 654.12 656.55 649.59 641.06 C 647.65 633.70 645.81 626.27 645.10 618.69 C 657.06 618.18 669.05 618.27 680.98 617.23 Z"/><path fill="#585858" opacity="1.00" d=" M 577.03 621.41 C 585.68 621.18 594.34 621.10 602.96 620.37 C 614.06 619.93 625.16 619.76 636.25 619.15 C 639.29 638.16 644.08 657.31 654.05 673.98 C 656.14 677.66 658.84 680.95 661.03 684.58 C 624.87 679.16 591.99 654.88 577.03 621.41 Z"/></g><g id="#d9d9d9ff"><path fill="#d9d9d9" opacity="1.00" d=" M 716.01 1038.05 C 744.99 1006.47 773.27 974.26 801.75 942.23 C 816.40 948.78 829.46 958.61 840.83 969.84 C 823.82 977.88 808.50 989.04 794.16 1001.12 C 765.92 1025.35 741.12 1053.55 720.38 1084.42 C 709.01 1101.76 698.53 1119.96 691.96 1139.72 C 657.34 1119.11 621.13 1101.16 583.68 1086.31 C 554.80 1074.80 525.14 1065.21 494.86 1058.19 C 539.55 1024.20 583.43 989.15 627.97 954.97 C 642.04 966.53 654.28 980.15 665.65 994.33 C 673.83 1005.01 682.27 1015.83 687.36 1028.40 C 687.92 1032.88 687.97 1038.08 691.87 1041.19 C 695.84 1045.15 701.91 1044.69 706.77 1042.82 C 710.48 1042.77 713.71 1040.88 716.01 1038.05 Z"/></g><g id="#343434ff"><path fill="#343434" opacity="1.00" d=" M 706.77 1042.82 C 708.20 1039.12 712.54 1038.37 716.01 1038.05 C 713.71 1040.88 710.48 1042.77 706.77 1042.82 Z"/></g><g id="#6c6c6cff"><path fill="#6c6c6c" opacity="1.00" d=" M 735.86 1104.91 C 746.03 1088.96 757.34 1073.72 769.82 1059.51 C 788.58 1059.70 806.59 1066.12 823.58 1073.57 C 842.48 1082.26 860.24 1093.45 876.28 1106.70 C 888.02 1116.61 899.20 1127.52 907.45 1140.58 C 910.08 1144.55 911.75 1149.12 914.77 1152.84 C 902.31 1162.58 888.53 1170.50 874.36 1177.46 C 853.68 1187.97 832.16 1196.87 810.10 1204.05 C 795.79 1208.55 781.09 1212.78 765.97 1212.93 C 770.34 1210.05 772.80 1204.55 771.33 1199.42 C 769.67 1194.02 764.56 1190.94 760.51 1187.47 C 745.40 1175.09 729.54 1163.63 713.18 1152.97 C 717.93 1135.80 726.52 1119.98 735.86 1104.91 Z"/></g><g id="#363636ff"><path fill="#363636" opacity="1.00" d=" M 365.66 1147.67 C 382.76 1123.02 399.75 1098.30 416.92 1073.69 C 443.80 1072.92 470.53 1077.19 496.58 1083.49 C 513.32 1087.35 529.67 1092.66 545.98 1098.02 C 587.17 1112.45 627.10 1130.53 665.06 1152.09 C 695.77 1169.37 725.10 1189.14 752.11 1211.80 C 726.32 1218.66 699.50 1220.13 672.96 1221.05 C 625.72 1221.54 578.51 1217.25 531.91 1209.74 C 487.76 1202.44 443.93 1192.38 401.78 1177.24 C 385.05 1171.18 368.66 1164.14 353.06 1155.56 C 358.58 1155.97 362.90 1152.01 365.66 1147.67 Z"/></g></svg>